<svg width="24" height="24" viewBox="0 0 24 24" fill="none" xmlns="http://www.w3.org/2000/svg">
<g id="Lamp Slash">
<path id="icon" d="M20.03 2.48L4.17999 18.33M5.24999 13C4.82999 12.03 4.57999 10.98 4.57999 9.9C4.57999 4.99 8.79999 1.12 13.6 2.17C15.06 2.49 16.36 3.27 17.36 4.35M19.06 7.3C20.28 11.18 18.31 15.08 15.52 16.87V18.03C15.52 18.32 15.62 18.99 14.62 18.99H9.41999C8.38999 18.99 8.51999 18.56 8.51999 18.03V16.87C8.03999 16.57 7.58999 16.2 7.15999 15.77M8.49999 22C10.79 21.35 13.21 21.35 15.5 22" stroke="#FFD700" stroke-width="1.5" stroke-linecap="round" stroke-linejoin="round"/>
</g>
</svg>
